<?xml version="1.0" encoding="utf-8"?>
<!-- Generator: Adobe Illustrator 25.3.1, SVG Export Plug-In . SVG Version: 6.00 Build 0)  -->
<svg version="1.1" id="Layer_1" xmlns="http://www.w3.org/2000/svg" xmlns:xlink="http://www.w3.org/1999/xlink" x="0px" y="0px"
	 viewBox="0 0 310.5 100" style="enable-background:new 0 0 310.5 100;" xml:space="preserve">
<style type="text/css">
	.st0{fill:#FFFFFF;}
	.st1{fill:#3A72B8;}
</style>
<g>
	<g>
		<path class="st0" d="M25.71,69.57c-1.67-2.08-3.87-3.12-6.61-3.12c-0.96,0-1.9,0.23-2.81,0.68c-0.91,0.46-1.37,1.24-1.37,2.36
			c0,0.91,0.47,1.58,1.41,2.01c0.94,0.43,2.13,0.81,3.57,1.14c1.44,0.33,2.99,0.68,4.64,1.06c1.65,0.38,3.19,0.98,4.64,1.79
			c1.44,0.81,2.63,1.91,3.57,3.31c0.94,1.39,1.41,3.26,1.41,5.59c0,2.38-0.52,4.34-1.56,5.89c-1.04,1.55-2.37,2.79-3.99,3.72
			c-1.62,0.94-3.45,1.6-5.47,1.98c-2.03,0.38-4.03,0.57-6,0.57c-2.58,0-5.19-0.37-7.83-1.1c-2.63-0.73-4.86-2.04-6.69-3.91
			l6.91-7.67c1.06,1.32,2.24,2.32,3.53,3s2.8,1.03,4.52,1.03c1.32,0,2.51-0.19,3.57-0.57c1.06-0.38,1.6-1.08,1.6-2.09
			c0-0.96-0.47-1.68-1.41-2.16c-0.94-0.48-2.13-0.89-3.57-1.22c-1.44-0.33-2.99-0.68-4.64-1.06c-1.65-0.38-3.19-0.95-4.64-1.71
			c-1.44-0.76-2.63-1.84-3.57-3.23c-0.94-1.39-1.41-3.25-1.41-5.58c0-2.18,0.44-4.05,1.33-5.62c0.89-1.57,2.05-2.86,3.5-3.87
			c1.44-1.01,3.1-1.76,4.98-2.24c1.87-0.48,3.77-0.72,5.7-0.72c2.43,0,4.89,0.36,7.37,1.06c2.48,0.71,4.58,1.98,6.31,3.8
			L25.71,69.57z"/>
		<path class="st0" d="M61.19,70.63c-0.56-0.81-1.34-1.48-2.36-2.01c-1.01-0.53-2.1-0.8-3.27-0.8c-2.89,0-5.13,0.86-6.72,2.58
			c-1.6,1.72-2.39,3.98-2.39,6.76c0,2.79,0.8,5.04,2.39,6.76c1.6,1.72,3.84,2.58,6.72,2.58c1.27,0,2.36-0.28,3.27-0.84
			c0.91-0.56,1.7-1.21,2.36-1.98l7.52,7.9c-1.77,1.82-3.86,3.1-6.27,3.84c-2.41,0.73-4.7,1.1-6.88,1.1c-2.84,0-5.51-0.46-8.02-1.37
			c-2.51-0.91-4.69-2.22-6.53-3.91c-1.85-1.7-3.31-3.74-4.37-6.12c-1.06-2.38-1.6-5.04-1.6-7.98c0-2.94,0.53-5.6,1.6-7.98
			c1.06-2.38,2.52-4.42,4.37-6.12c1.85-1.7,4.03-3,6.53-3.91c2.51-0.91,5.18-1.37,8.02-1.37c2.18,0,4.47,0.37,6.88,1.1
			c2.41,0.74,4.5,2.01,6.27,3.84L61.19,70.63z"/>
		<path class="st0" d="M69.02,58.7h11.4v5.93h0.15c1.22-2.28,2.66-3.99,4.33-5.13c1.67-1.14,3.77-1.71,6.31-1.71
			c0.66,0,1.32,0.03,1.98,0.08c0.66,0.05,1.26,0.15,1.82,0.3v10.41c-0.81-0.25-1.61-0.44-2.39-0.57c-0.79-0.13-1.61-0.19-2.47-0.19
			c-2.18,0-3.9,0.3-5.17,0.91c-1.27,0.61-2.24,1.46-2.92,2.55c-0.68,1.09-1.13,2.39-1.33,3.91c-0.2,1.52-0.3,3.19-0.3,5.01v15.42
			h-11.4V58.7z"/>
		<path class="st0" d="M129.73,89.24c-1.82,2.33-4.13,4.13-6.91,5.4c-2.79,1.26-5.67,1.9-8.66,1.9c-2.84,0-5.51-0.46-8.02-1.37
			c-2.51-0.91-4.69-2.22-6.53-3.91c-1.85-1.7-3.31-3.74-4.37-6.12c-1.06-2.38-1.6-5.04-1.6-7.98c0-2.94,0.53-5.6,1.6-7.98
			c1.06-2.38,2.52-4.42,4.37-6.12c1.85-1.7,4.03-3,6.53-3.91c2.51-0.91,5.18-1.37,8.02-1.37c2.63,0,5.03,0.46,7.18,1.37
			c2.15,0.91,3.98,2.22,5.47,3.91c1.49,1.7,2.65,3.74,3.46,6.12c0.81,2.38,1.21,5.04,1.21,7.98v3.57h-26.44
			c0.46,2.18,1.44,3.91,2.96,5.21c1.52,1.29,3.39,1.94,5.62,1.94c1.87,0,3.46-0.42,4.75-1.25c1.29-0.84,2.42-1.91,3.38-3.23
			L129.73,89.24z M120.08,72.98c0.05-1.92-0.58-3.57-1.9-4.94c-1.32-1.37-3.01-2.05-5.09-2.05c-1.27,0-2.38,0.2-3.34,0.61
			c-0.96,0.41-1.79,0.92-2.47,1.56c-0.68,0.63-1.21,1.37-1.6,2.2c-0.38,0.84-0.6,1.71-0.65,2.62H120.08z"/>
		<path class="st0" d="M169.54,89.24c-1.82,2.33-4.13,4.13-6.91,5.4c-2.79,1.26-5.67,1.9-8.66,1.9c-2.84,0-5.51-0.46-8.02-1.37
			c-2.51-0.91-4.69-2.22-6.53-3.91c-1.85-1.7-3.31-3.74-4.37-6.12c-1.06-2.38-1.6-5.04-1.6-7.98c0-2.94,0.53-5.6,1.6-7.98
			c1.06-2.38,2.52-4.42,4.37-6.12c1.85-1.7,4.03-3,6.53-3.91c2.51-0.91,5.18-1.37,8.02-1.37c2.63,0,5.03,0.46,7.18,1.37
			c2.15,0.91,3.98,2.22,5.47,3.91c1.49,1.7,2.65,3.74,3.46,6.12c0.81,2.38,1.21,5.04,1.21,7.98v3.57h-26.44
			c0.46,2.18,1.44,3.91,2.96,5.21c1.52,1.29,3.39,1.94,5.62,1.94c1.87,0,3.46-0.42,4.75-1.25c1.29-0.84,2.42-1.91,3.38-3.23
			L169.54,89.24z M159.89,72.98c0.05-1.92-0.58-3.57-1.9-4.94c-1.32-1.37-3.01-2.05-5.09-2.05c-1.27,0-2.38,0.2-3.34,0.61
			c-0.96,0.41-1.79,0.92-2.47,1.56c-0.68,0.63-1.21,1.37-1.6,2.2c-0.38,0.84-0.6,1.71-0.65,2.62H159.89z"/>
		<path class="st0" d="M174.4,58.7h10.94v5.01h0.15c0.35-0.71,0.86-1.42,1.52-2.13c0.66-0.71,1.44-1.34,2.36-1.9
			c0.91-0.56,1.95-1.01,3.11-1.37c1.16-0.35,2.43-0.53,3.8-0.53c2.89,0,5.22,0.44,6.99,1.33c1.77,0.89,3.15,2.11,4.14,3.69
			c0.99,1.57,1.66,3.42,2.01,5.55s0.53,4.43,0.53,6.91v20.36h-11.4V77.54c0-1.06-0.04-2.17-0.11-3.31c-0.08-1.14-0.3-2.19-0.68-3.15
			c-0.38-0.96-0.96-1.75-1.75-2.36c-0.79-0.61-1.91-0.91-3.38-0.91c-1.47,0-2.66,0.27-3.57,0.8c-0.91,0.53-1.61,1.24-2.09,2.13
			c-0.48,0.89-0.8,1.89-0.95,3c-0.15,1.12-0.23,2.28-0.23,3.5v18.39h-11.4V58.7z"/>
		<rect x="214.37" y="58.7" class="st0" width="11.4" height="36.93"/>
		<path class="st0" d="M234.13,67.82h-7.52V58.7h7.52v-6.54c0-2.03,0.18-3.94,0.53-5.74c0.35-1.8,1.04-3.38,2.05-4.75
			c1.01-1.37,2.47-2.44,4.37-3.23c1.9-0.79,4.39-1.18,7.49-1.18c1.16,0,2.3,0.05,3.42,0.15c1.11,0.1,2.2,0.28,3.27,0.53l-0.53,9.65
			c-0.66-0.25-1.27-0.44-1.82-0.57c-0.56-0.13-1.19-0.19-1.9-0.19c-1.82,0-3.19,0.39-4.1,1.18c-0.91,0.79-1.37,2.39-1.37,4.82v5.85
			h8.43v9.12h-8.43v27.81h-11.4V67.82z"/>
		<rect x="258.44" y="58.7" class="st0" width="11.4" height="36.93"/>
	</g>
	<g>
		<path class="st1" d="M213.46,47.07c0-1.82,0.65-3.38,1.94-4.67c1.29-1.29,2.85-1.94,4.67-1.94c1.82,0,3.38,0.65,4.67,1.94
			c1.29,1.29,1.94,2.85,1.94,4.67c0,1.82-0.65,3.38-1.94,4.67c-1.29,1.29-2.85,1.94-4.67,1.94c-1.82,0-3.38-0.65-4.67-1.94
			C214.1,50.46,213.46,48.9,213.46,47.07z"/>
		<path class="st1" d="M257.53,47.07c0-1.82,0.65-3.38,1.94-4.67c1.29-1.29,2.85-1.94,4.67-1.94c1.82,0,3.38,0.65,4.67,1.94
			c1.29,1.29,1.94,2.85,1.94,4.67c0,1.82-0.65,3.38-1.94,4.67c-1.29,1.29-2.85,1.94-4.67,1.94c-1.82,0-3.38-0.65-4.67-1.94
			C258.17,50.46,257.53,48.9,257.53,47.07z"/>
		<g>
			<path class="st1" d="M306.63,46.62c1.13-1.16,1.44-2.43,1.16-3.91c-1.19-6.34-3.5-12.24-7-17.66
				c-3.02-4.68-6.76-8.72-11.16-12.14c-3.8-2.95-7.95-5.27-12.45-6.98c-2.89-1.1-5.85-1.95-8.9-2.43c-1.68-0.26-3.03,0.39-3.94,1.81
				c-1.53,2.37-0.15,5.51,2.64,6.06c0.79,0.15,1.59,0.3,2.37,0.49c8.48,2.06,15.58,6.4,21.31,12.97c3.77,4.32,6.48,9.23,8.13,14.71
				c0.47,1.57,0.81,3.19,1.17,4.79c0.35,1.57,1.23,2.67,2.76,3.15C304.22,47.98,305.56,47.61,306.63,46.62z M294.26,47.65
				c1.06-1.13,1.4-2.4,1.08-3.84c-1.54-6.99-4.85-13.03-9.91-18.08c-3.19-3.18-6.85-5.68-10.98-7.48c-2.31-1.01-4.7-1.82-7.18-2.27
				c-1.5-0.27-2.81,0.22-3.74,1.42c-1.9,2.44-0.67,5.74,2.35,6.42c7.19,1.63,12.92,5.47,17.2,11.46c2.23,3.13,3.69,6.6,4.5,10.36
				c0.33,1.51,1.27,2.53,2.75,2.98C291.83,49.06,293.16,48.67,294.26,47.65z M271.16,40.2c1.85,1.88,3.21,4.07,3.97,6.63
				c0.31,1.03,0.88,1.87,1.79,2.44c1.4,0.88,3.33,0.78,4.6-0.2c1.36-1.05,1.83-2.65,1.28-4.43c-1.37-4.48-3.81-8.26-7.37-11.32
				c-2.57-2.21-5.48-3.8-8.72-4.77c-1.56-0.47-2.96-0.11-4.08,1.06c-2.09,2.18-1.11,5.68,1.83,6.59
				C267.02,36.99,269.24,38.32,271.16,40.2z"/>
			<path class="st1" d="M306.63,46.62c-1.08,0.99-2.41,1.36-3.91,0.88c-1.53-0.48-2.41-1.58-2.76-3.15
				c-0.36-1.61-0.69-3.22-1.17-4.79c-1.65-5.49-4.36-10.4-8.13-14.71c-5.74-6.57-12.83-10.91-21.31-12.97
				c-0.78-0.19-1.58-0.34-2.37-0.49c-2.79-0.54-4.17-3.68-2.64-6.06c0.91-1.42,2.27-2.07,3.94-1.81c3.05,0.48,6.02,1.33,8.9,2.43
				c4.49,1.71,8.65,4.03,12.45,6.98c4.4,3.42,8.13,7.45,11.16,12.14c3.5,5.42,5.81,11.32,7,17.66
				C308.07,44.19,307.76,45.46,306.63,46.62z"/>
			<path class="st1" d="M294.26,47.65c-1.1,1.02-2.43,1.41-3.94,0.96c-1.48-0.45-2.42-1.47-2.75-2.98
				c-0.81-3.76-2.27-7.23-4.5-10.36c-4.28-5.99-10-9.83-17.2-11.46c-3.02-0.68-4.25-3.97-2.35-6.42c0.93-1.2,2.24-1.69,3.74-1.42
				c2.49,0.45,4.87,1.26,7.18,2.27c4.13,1.8,7.79,4.3,10.98,7.48c5.07,5.05,8.37,11.09,9.91,18.08
				C295.66,45.25,295.32,46.52,294.26,47.65z"/>
			<path class="st1" d="M271.16,40.2c-1.92-1.88-4.13-3.21-6.68-4c-2.94-0.91-3.92-4.42-1.83-6.59c1.12-1.17,2.52-1.52,4.08-1.06
				c3.24,0.97,6.15,2.55,8.72,4.77c3.55,3.06,6,6.84,7.37,11.32c0.54,1.78,0.08,3.38-1.28,4.43c-1.27,0.98-3.21,1.08-4.6,0.2
				c-0.91-0.57-1.49-1.4-1.79-2.44C274.37,44.27,273,42.07,271.16,40.2z"/>
		</g>
	</g>
</g>
</svg>
